<?xml version="1.0" encoding="UTF-8" standalone="no"?>
<!-- Created with Inkscape (http://www.inkscape.org/) -->

<svg
   width="512"
   height="512"
   viewBox="0 0 512 512"
   version="1.1"
   id="SVGRoot"
   xmlns="http://www.w3.org/2000/svg"
   xmlns:svg="http://www.w3.org/2000/svg">
  <defs
     id="defs10181" />
  <g
     id="layer1">
    <circle
       style="fill:#ffffff;fill-opacity:1;stroke:none;stroke-width:0;stroke-dasharray:none"
       id="path10196"
       cx="256"
       cy="256"
       r="256" />
    <path
       style="fill:#1ed4e5;fill-opacity:1;stroke:none;stroke-width:0;stroke-dasharray:none;stroke-opacity:1"
       d="m 187.93012,384.10649 c -20.48699,-42.47283 -37.36669,-77.22332 -37.51044,-77.22332 -0.14375,0 -28.18235,12.73476 -62.308,28.29947 -34.12565,15.56471 -62.319981,28.40428 -62.654074,28.53237 -0.725815,0.27828 -4.997853,-9.29029 -4.400537,-9.85639 0.63132,-0.59832 142.776781,-81.48344 143.196931,-81.48344 0.20899,0 11.40388,23.31689 24.87755,51.81529 17.92463,37.91273 24.59731,51.56617 24.86929,50.88679 0.20444,-0.51068 11.2335,-64.84331 24.50905,-142.9614 13.27554,-78.11809 24.15396,-142.06975 24.17428,-142.1148 0.0283,-0.06279 146.55829,2.687845 183.48664,3.444385 l 6.7525,0.138335 3.60257,4.49087 c 1.98141,2.46998 3.54369,4.54969 3.47173,4.62159 -0.072,0.0719 -39.86072,0.92894 -88.41947,1.90455 -48.55874,0.97561 -88.32903,1.82157 -88.37842,1.87992 -0.0494,0.0584 -12.98834,79.77453 -28.75322,177.14708 -15.76489,97.37254 -28.7993,177.18971 -28.96536,177.3715 -0.16607,0.18178 -17.06402,-34.41998 -37.55102,-76.8928 z"
       id="path10169" />
  </g>
</svg>
